<?xml version="1.0" encoding="utf-8"?>
<!-- Generator: Adobe Illustrator 17.1.0, SVG Export Plug-In . SVG Version: 6.00 Build 0)  -->
<!DOCTYPE svg PUBLIC "-//W3C//DTD SVG 1.1//EN" "http://www.w3.org/Graphics/SVG/1.1/DTD/svg11.dtd">
<svg version="1.1" id="Layer_1" xmlns="http://www.w3.org/2000/svg" xmlns:xlink="http://www.w3.org/1999/xlink" x="0px" y="0px"
	 viewBox="0 0 243.631 102.971" style="enable-background:new 0 0 243.631 102.971;" xml:space="preserve">
<style type="text/css">
	.st0{fill:none;}
	.st1{fill:#F2E3B3;}
</style>
<g>
	<rect x="0" y="9" class="st0" width="243.631" height="90.352"/>
	<path class="st1" d="M28.939,10.146c9.073,0,16.058,4.537,19.226,11.161l-7.633,5.256c-2.376-5.76-7.561-7.632-11.881-7.632
		c-9.433,0-14.185,8.856-14.185,16.993c0,9.073,5.905,17.282,14.401,17.282c4.392,0,9.649-2.232,11.953-7.777l8.137,4.68
		c-3.096,7.633-12.385,11.881-20.378,11.881c-14.185,0-24.122-13.393-24.122-26.354C4.457,23.18,13.458,10.146,28.939,10.146z"/>
	<path class="st1" d="M55.721,61.559V10.507h9.937v51.052H55.721z"/>
	<path class="st1" d="M118.004,61.559V27.716l-13.178,25.202h-5.4L86.25,27.716v33.843h-9.938V10.435h10.657l15.121,29.091
		l15.266-29.091h10.585v51.125H118.004z"/>
	<path class="st1" d="M135.639,35.997c0-13.609,10.369-25.922,24.41-25.922c14.474,0,24.122,13.177,24.122,26.066
		c0,13.537-10.225,25.778-24.338,25.778C145.36,61.919,135.639,49.102,135.639,35.997z M159.977,53.134
		c9.146,0,14.186-8.713,14.186-17.137c0-8.857-5.473-17.065-14.257-17.065c-9.146,0-14.258,8.641-14.258,17.065
		C145.648,44.854,150.977,53.134,159.977,53.134z"/>
	<path class="st1" d="M201.808,28.796v32.763h-9.938V10.435h7.705l26.643,33.555V10.507h9.937v51.052h-8.064L201.808,28.796z"/>
	<path class="st1" d="M35.24,81.887c-0.504-0.56-2.968-1.96-5.348-1.96c-2.1,0-3.164,0.812-3.164,2.24
		c0,1.624,1.54,2.044,4.536,2.828c3.92,1.008,6.384,2.239,6.384,5.88c0,4.283-3.444,5.907-7.364,5.907
		c-2.968,0-6.048-0.951-8.344-2.575l1.708-3.332c0.672,0.672,3.668,2.436,6.692,2.436c2.1,0,3.192-0.728,3.192-2.044
		c0-1.764-2.044-2.268-5.152-3.108c-3.78-1.035-5.628-2.323-5.628-5.376c0-4.06,3.22-6.243,7.252-6.243
		c2.772,0,5.208,1.035,6.944,2.212L35.24,81.887z"/>
	<path class="st1" d="M53.748,96.559h-3.752v-8.232c0-2.296-0.924-3.388-2.464-3.388c-1.372,0-3.108,1.26-3.668,3.052v8.568h-3.752
		V76.12h3.752v8.483c1.092-1.876,3.052-2.968,5.264-2.968c3.78,0,4.62,2.884,4.62,5.768V96.559z"/>
	<path class="st1" d="M56.072,89.251c0-4.088,2.94-7.616,7.7-7.616c4.76,0,7.672,3.528,7.672,7.616c0,4.031-2.885,7.588-7.672,7.588
		C58.983,96.839,56.072,93.283,56.072,89.251z M63.772,93.647c2.155,0,3.836-1.848,3.836-4.424c0-2.548-1.681-4.396-3.836-4.396
		c-2.156,0-3.836,1.876-3.836,4.425C59.936,91.827,61.616,93.647,63.772,93.647z"/>
	<path class="st1" d="M73.011,89.307c0-4.172,2.968-7.672,7.756-7.672s7.644,3.556,7.644,7.532c0,0.476-0.027,0.951-0.084,1.26
		h-11.34c0.196,2.296,1.933,3.668,3.893,3.668c1.483,0,2.995-0.784,3.472-1.988l3.22,0.896c-1.063,2.239-3.584,3.836-6.832,3.836
		C76.007,96.839,73.011,93.367,73.011,89.307z M84.547,87.991c-0.196-2.184-1.792-3.64-3.836-3.64c-2.017,0-3.612,1.456-3.78,3.64
		H84.547z"/>
	<path class="st1" d="M106.135,76.567c3.528,0,6.244,1.765,7.476,4.34l-2.968,2.044c-0.924-2.239-2.939-2.968-4.62-2.968
		c-3.668,0-5.516,3.444-5.516,6.608c0,3.527,2.296,6.72,5.6,6.72c1.708,0,3.752-0.868,4.648-3.024l3.164,1.82
		c-1.204,2.968-4.816,4.62-7.924,4.62c-5.517,0-9.381-5.208-9.381-10.248C96.615,81.635,100.115,76.567,106.135,76.567z"/>
	<path class="st1" d="M115.124,89.251c0-4.088,2.939-7.616,7.7-7.616c4.76,0,7.672,3.528,7.672,7.616
		c0,4.031-2.885,7.588-7.672,7.588C118.036,96.839,115.124,93.283,115.124,89.251z M122.824,93.647c2.155,0,3.836-1.848,3.836-4.424
		c0-2.548-1.681-4.396-3.836-4.396c-2.156,0-3.836,1.876-3.836,4.425C118.988,91.827,120.667,93.647,122.824,93.647z"/>
	<path class="st1" d="M155.75,96.559h-3.752v-8.232c0-2.323-0.868-3.388-2.296-3.388c-1.456,0-2.912,1.26-3.472,3.08v8.54h-3.752
		v-8.232c0-2.352-0.868-3.388-2.269-3.388c-1.456,0-2.939,1.232-3.5,3.052v8.568h-3.752V81.887h3.389v2.716
		c1.092-1.904,3.052-2.968,5.46-2.968c2.436,0,3.752,1.372,4.144,3.107c1.176-2.016,3.08-3.107,5.404-3.107
		c3.611,0,4.396,2.939,4.396,5.768V96.559z"/>
	<path class="st1" d="M162.722,93.983v8.54h-3.752V81.887h3.276v2.52c1.092-1.708,2.855-2.771,5.068-2.771
		c3.947,0,6.859,3.416,6.859,7.56c0,4.284-2.688,7.645-6.439,7.645C165.466,96.839,163.674,95.719,162.722,93.983z M170.338,89.195
		c0-2.464-1.736-4.368-4.06-4.368c-1.429,0-3.053,1.036-3.557,2.465v3.443c0.672,1.652,2.185,2.912,3.78,2.912
		C168.77,93.647,170.338,91.519,170.338,89.195z"/>
	<path class="st1" d="M175.686,92.191c0-2.8,2.576-4.731,6.244-4.731c1.315,0,2.632,0.224,3.584,0.644v-0.84
		c0-1.932-1.12-3.024-3.276-3.024c-1.568,0-3.024,0.561-4.592,1.652l-1.148-2.38c1.904-1.26,3.92-1.876,6.104-1.876
		c4.2,0,6.664,2.156,6.664,6.048v4.564c0,0.783,0.279,1.092,1.008,1.119v3.192c-0.7,0.14-1.344,0.196-1.792,0.196
		c-1.4-0.028-2.128-0.7-2.324-1.736l-0.084-0.812c-1.316,1.708-3.248,2.632-5.376,2.632
		C177.842,96.839,175.686,94.851,175.686,92.191z M184.898,92.863c0.392-0.308,0.616-0.699,0.616-1.063v-1.681
		c-0.896-0.336-2.017-0.56-2.969-0.56c-1.932,0-3.304,0.98-3.304,2.324c0,1.26,1.092,2.212,2.521,2.212
		C183.022,94.095,184.253,93.619,184.898,92.863z"/>
	<path class="st1" d="M206.486,96.559h-3.753v-8.232c0-2.352-0.867-3.388-2.323-3.388c-1.513,0-3.248,1.288-3.809,3.052v8.568
		h-3.752V81.887h3.389v2.716c1.092-1.848,3.248-2.968,5.823-2.968c3.668,0,4.425,2.912,4.425,5.768V96.559z"/>
	<path class="st1" d="M209.677,99.416c0.672,0.195,1.232,0.252,1.652,0.252c0.951,0,1.483-0.532,2.296-3.108l-5.824-14.672h3.864
		l4.004,11.424l3.527-11.424h3.528l-6.188,17.584c-0.784,2.212-2.604,3.5-4.872,3.5c-0.672,0-1.345-0.112-1.988-0.309V99.416z"/>
</g>
<g>
</g>
<g>
</g>
<g>
</g>
<g>
</g>
<g>
</g>
<g>
</g>
</svg>
