<?xml version="1.0" encoding="utf-8"?>
<!-- Generator: Adobe Illustrator 17.1.0, SVG Export Plug-In . SVG Version: 6.00 Build 0)  -->
<!DOCTYPE svg PUBLIC "-//W3C//DTD SVG 1.1//EN" "http://www.w3.org/Graphics/SVG/1.1/DTD/svg11.dtd">
<svg version="1.1" id="Layer_1" xmlns="http://www.w3.org/2000/svg" xmlns:xlink="http://www.w3.org/1999/xlink" x="0px" y="0px"
	 viewBox="0 0 195 195" style="enable-background:new 0 0 195 195;" xml:space="preserve">
<style type="text/css">
	.st0{clip-path:url(#SVGID_2_);fill:#3C589E;}
	.st1{fill:#6E85B4;}
	.st2{clip-path:url(#SVGID_4_);fill:#FFFFFF;}
</style>
<g>
	<defs>
		<rect id="SVGID_1_" x="1.162" y="1" width="192.678" height="195"/>
	</defs>
	<clipPath id="SVGID_2_">
		<use xlink:href="#SVGID_1_"  style="overflow:visible;"/>
	</clipPath>
	<path class="st0" d="M21.885,1c0,0-20.725,0-20.725,20.725v151.229c0,0,0,20.725,20.725,20.725h151.234c0,0,20.72,0,20.72-20.725
		V21.725c0,0,0-20.725-20.72-20.725H21.885z"/>
</g>
<rect x="8.126" y="147.248" class="st1" width="178.749" height="33.662"/>
<g>
	<defs>
		<rect id="SVGID_3_" x="1.162" y="1" width="192.678" height="195"/>
	</defs>
	<clipPath id="SVGID_4_">
		<use xlink:href="#SVGID_3_"  style="overflow:visible;"/>
	</clipPath>
	<path class="st2" d="M163.662,31.179v25.537h-13.929c0,0-16.251,0-16.251,13.929v18.568h30.18l-4.643,30.18h-25.537v76.606h-30.175
		v-76.606H80.091v-30.18h23.215V63.68c0,0-2.322-32.502,39.461-32.502H163.662z"/>
</g>
<g>
</g>
<g>
</g>
<g>
</g>
<g>
</g>
<g>
</g>
<g>
</g>
</svg>
