<?xml version="1.0" encoding="utf-8"?>
<!-- Generator: Adobe Illustrator 17.1.0, SVG Export Plug-In . SVG Version: 6.00 Build 0)  -->
<!DOCTYPE svg PUBLIC "-//W3C//DTD SVG 1.1//EN" "http://www.w3.org/Graphics/SVG/1.1/DTD/svg11.dtd">
<svg version="1.1" id="Layer_1" xmlns="http://www.w3.org/2000/svg" xmlns:xlink="http://www.w3.org/1999/xlink" x="0px" y="0px"
	 viewBox="0 0 62.667 62.667" style="enable-background:new 0 0 62.667 62.667;" xml:space="preserve">
<style type="text/css">
	.st0{fill:#63100F;}
	.st1{fill:#F2E3B3;}
</style>
<rect x="0" y="0" class="st0" width="62.667" height="62.667"/>
<path class="st1" d="M57.167,17.917c0,1.795-1.764,3.25-3.939,3.25H9.106c-2.176,0-3.939-1.455-3.939-3.25l0,0
	c0-1.795,1.764-3.25,3.939-3.25h44.121C55.403,14.667,57.167,16.122,57.167,17.917L57.167,17.917z"/>
<path class="st1" d="M57.167,31.083c0,1.795-1.764,3.25-3.939,3.25H9.106c-2.176,0-3.939-1.455-3.939-3.25l0,0
	c0-1.795,1.764-3.25,3.939-3.25h44.121C55.403,27.833,57.167,29.288,57.167,31.083L57.167,31.083z"/>
<path class="st1" d="M57.167,44.25c0,1.795-1.764,3.25-3.939,3.25H9.106c-2.176,0-3.939-1.455-3.939-3.25l0,0
	c0-1.795,1.764-3.25,3.939-3.25h44.121C55.403,41,57.167,42.455,57.167,44.25L57.167,44.25z"/>
<g>
</g>
<g>
</g>
<g>
</g>
<g>
</g>
<g>
</g>
<g>
</g>
</svg>
