<?xml version="1.0" encoding="utf-8"?>
<!-- Generator: Adobe Illustrator 17.1.0, SVG Export Plug-In . SVG Version: 6.00 Build 0)  -->
<!DOCTYPE svg PUBLIC "-//W3C//DTD SVG 1.1//EN" "http://www.w3.org/Graphics/SVG/1.1/DTD/svg11.dtd">
<svg version="1.1" id="Layer_1" xmlns="http://www.w3.org/2000/svg" xmlns:xlink="http://www.w3.org/1999/xlink" x="0px" y="0px"
	 viewBox="0 0 195 195" style="enable-background:new 0 0 195 195;" xml:space="preserve">
<style type="text/css">
	.st0{clip-path:url(#SVGID_2_);fill:#947644;}
	.st1{clip-path:url(#SVGID_2_);fill:#FFFFFF;}
</style>
<g>
	<defs>
		<rect id="SVGID_1_" x="-0.249" y="-0.333" width="195.583" height="195.583"/>
	</defs>
	<clipPath id="SVGID_2_">
		<use xlink:href="#SVGID_1_"  style="overflow:visible;"/>
	</clipPath>
	<path class="st0" d="M40.794-0.334c0,0-41.044,0-41.044,41.044v113.494c0,0,0,41.044,41.044,41.044h113.494
		c0,0,41.044,0,41.044-41.044V40.71c0,0,0-41.044-41.044-41.044H40.794z"/>
	<path class="st1" d="M41.136,37.544v82.769c0,0,5.91,49.271,41.384,49.271h55.181c0,0,13.796,1.972,13.796-19.706
		c0-17.74-15.768-15.768-15.768-15.768H98.289c0,0-19.706,0-19.706-21.678V94.697h57.148c0,0,15.768,2.017,15.768-17.69
		c0-15.768-9.853-15.768-15.768-15.768H78.582v-23.65c0,0,1.967-13.791-19.711-13.791C41.136,23.798,41.136,37.544,41.136,37.544"/>
</g>
<g>
</g>
<g>
</g>
<g>
</g>
<g>
</g>
<g>
</g>
<g>
</g>
</svg>
